<svg width="249" height="96" viewBox="0 0 249 96" fill="none" xmlns="http://www.w3.org/2000/svg">
<path d="M128.285 41.0728C127.825 31.0342 121.886 27.3533 109.965 27.3533C98.3786 27.3533 92.4391 31.3688 91.4352 41.9512L128.285 41.0728ZM76.7537 44.8373C76.7537 27.0187 89.9713 15.1815 109.965 15.1815C129.708 15.1815 142.841 25.3038 143.176 40.4872V49.6057H91.7699C93.5266 58.7241 100.93 62.4049 115.486 62.4049C128.955 62.4049 134.476 58.9332 140.75 56.2563V68.9719C130.042 73.1128 123.894 74.4513 109.965 74.4513C90.0131 74.4931 76.7537 62.6559 76.7537 44.8373ZM230.261 0.5H249L244.65 49.8148L230.261 48.9782V0.5ZM236.117 76.3754C241.973 76.6263 246.156 72.9873 246.407 67.4661C246.616 62.1121 242.475 58.0967 236.912 57.8875C231.432 57.6784 226.999 61.3174 226.748 66.6713C226.497 72.1508 230.638 76.1244 236.117 76.3754ZM188.517 27.3533C200.02 27.3533 208.553 34.2131 208.553 45.1719C208.553 55.9216 200.02 62.4468 188.517 62.4468C177.893 62.4468 168.356 55.8798 168.356 45.1719C168.356 34.2131 177.893 27.3533 188.517 27.3533ZM195.126 15.1815C180.946 15.1815 167.269 21.7903 164.592 35.1751H163.253L165.721 17.0637H149.408V95.3233H165.303V54.7505H165.763C168.44 67.9262 181.197 74.4513 194.959 74.4513C210.937 74.4513 224.154 62.9069 224.154 45.3392C224.071 27.2697 211.021 15.1815 195.126 15.1815ZM33.6294 72.9037L0 17.1056H17.5676L41.0329 58.2222L63.9545 17.0637H80.6437L37.7704 95.3651H21.123L33.6294 72.9037Z" fill="#01272F"/>
</svg>
