<svg xmlns="http://www.w3.org/2000/svg" xmlns:xlink="http://www.w3.org/1999/xlink" width="692" height="300" viewBox="0 0 692 300">
  <defs>
    <clipPath id="clip-ED_Logo">
      <rect width="692" height="300"/>
    </clipPath>
  </defs>
  <g id="ED_Logo" data-name="ED Logo" clip-path="url(#clip-ED_Logo)">
    <rect width="692" height="300" fill="#fff"/>
    <g id="Group_225353" data-name="Group 225353" transform="translate(-30.561 -307.766)">
      <g id="Group_225172" data-name="Group 225172" transform="translate(102 400)">
        <g id="Artboard_4" data-name="Artboard 4" transform="translate(475.614 8.057)">
          <path id="Path_2" data-name="Path 2" d="M140.73,142.006a28.392,28.392,0,0,1-7.628,2.356,27.928,27.928,0,0,1-4.756.366,28.6,28.6,0,0,1-14-3.83,28.086,28.086,0,0,1-7.558-6.336,28.375,28.375,0,0,1-5.9-11.612A27.416,27.416,0,0,1,100.1,115a28.638,28.638,0,0,1,12.171-22.232c0-.161.022-.326.022-.487V86.106c0-.571.117-.732.655-.951l8.275-3.267a.852.852,0,0,0,.388-.2c0,.2-.187.219-.322.274q-4.024,1.58-8.026,3.161c-.856.34-.856.344-.856,1.262v5.853a1.548,1.548,0,0,1-.037.487,1.173,1.173,0,0,1-.1.128l-.033.037a5.219,5.219,0,0,1-.732.53,28.687,28.687,0,0,0-3.823,3.472,28.1,28.1,0,0,0-3.94,5.451,29.268,29.268,0,0,0-2.312,5.407,27.073,27.073,0,0,0-1.1,5.082,27.48,27.48,0,0,0-.2,3.556,28.415,28.415,0,0,0,2.916,12.241,27.591,27.591,0,0,0,4.357,6.5,28.129,28.129,0,0,0,10.324,7.317,28.7,28.7,0,0,0,7.924,2.008,24.9,24.9,0,0,0,3.128.176,29.436,29.436,0,0,0,8.026-1.226,28.565,28.565,0,0,0,8.5-4.193,30.2,30.2,0,0,0,2.791-2.323,28.505,28.505,0,0,0,8.692-16.675c.117-.809.183-1.621.245-2.437a22.019,22.019,0,0,0,.044-2.356A28.629,28.629,0,0,0,154,103.282,28.313,28.313,0,0,0,137.05,88.988a29.559,29.559,0,0,0-3.717-.889.812.812,0,0,1-.263-.077l-.044-.029a.066.066,0,0,1-.026,0,2.25,2.25,0,0,1-.07-.937c0-.6-.11-.757-.659-.988-3.256-1.372-6.519-2.726-9.775-4.1-.139-.059-.333-.066-.366-.282a19.393,19.393,0,0,0,2.074.911q4.075,1.719,8.173,3.421a.83.83,0,0,1,.626.944v1.01a28.549,28.549,0,0,1,21.039,41.142,27.734,27.734,0,0,1-4.493,6.464A28.17,28.17,0,0,1,140.73,142.006Z" transform="translate(-100.066 -81.668)" fill="#fff"/>
          <path id="Path_3" data-name="Path 3" d="M246.071,255q-2.7,2.228-5.436,4.412a3.951,3.951,0,0,1-5.78-.871q-5.246-7.258-10.448-14.527-3.512-4.888-7.024-9.768c-.176-.245-.154-.329.1-.472a33.01,33.01,0,0,0,8-6.366c.179-.19.366-.388.541-.6l4.84,5.334q5.392,5.934,10.785,11.872c1.635,1.8,3.292,3.582,4.891,5.414a3.878,3.878,0,0,1-.476,5.575Z" transform="translate(-174.391 -173.691)" fill="#fff"/>
          <path id="Path_4" data-name="Path 4" d="M133.094,121.777h0a3.026,3.026,0,0,0,.3,1.58c.234.49.49.966.732,1.463a3.211,3.211,0,0,0,.326.523c.121.146.216.132.26-.062v-.026h0a.581.581,0,0,0,0-.077.733.733,0,0,0,0-.088c.033-1.167.022-2.338.055-3.508.073-2.722.048-5.451.062-8.18.047-8.729.018-17.458.018-26.187v-.366a.461.461,0,0,1,.366-.534c.413-.139.812-.318,1.218-.476,1.716-.68,3.428-1.365,5.147-2.034.337-.132.366-.1.392.252v46.418a2.922,2.922,0,0,0,.033.618.834.834,0,0,0,.841.732.849.849,0,0,0,.827-.783,4.492,4.492,0,0,0,0-.585V84.187c0-.5,0-.5.446-.311l7.511,3.161c.732.3.67.241.67,1v44.395a.845.845,0,0,0,.326.754.68.68,0,0,0,.084.059l.048.026a.878.878,0,0,0,1.1-.307h0a.368.368,0,0,0,.026-.055A2,2,0,0,0,154,132V99.779c0-.209.1-.293.307-.282.523.026,1.046-.026,1.569,0,.655,0,.659,0,.655.666-.037,7.317.07,14.634-.059,21.95-.044,2.769,0,5.542,0,8.316v.457a.907.907,0,0,0,.567.856h.051a.82.82,0,0,0,1.01-.516h0l.022-.062a1.3,1.3,0,0,0,.033-.337c0-1.829.044-3.658.051-5.488.037-8.173,0-16.346,0-24.511v-.293c0-.366.055-.366.366-.2,1.829,1.076,3.68,2.137,5.521,3.2a.732.732,0,0,1,.406.71c.018,3.808-.029,7.617.051,11.422.059,3,0,6,0,9v.08a.033.033,0,0,0,0,.018.318.318,0,0,1,0,.059.142.142,0,0,0,.1.157c.077.018.143-.08.194-.146a1.153,1.153,0,0,0,.121-.194l.732-1.463a4.24,4.24,0,0,0,.644-2.268v-.139l-.084.223v-9.278a2.522,2.522,0,0,1,.018-.366l.1.194V111.4c.04-1.339-.1-2.678-.069-4.024s0-2.561,0-3.863a1.163,1.163,0,0,0-.64-1.119q-3.75-2.173-7.489-4.368a1.8,1.8,0,0,0-.991-.263h-2.751c-.344,0-.366-.033-.366-.366V88.457a1.1,1.1,0,0,0-.04-.476.6.6,0,0,0-.037-.066v-1.01a.831.831,0,0,0-.626-.944q-4.086-1.712-8.173-3.421a19.389,19.389,0,0,1-2.074-.911h-.56a.853.853,0,0,1-.388.2L133.888,85.1c-.538.212-.655.366-.655.951v6.179a3.617,3.617,0,0,1-.022.487l-.022.117a1.646,1.646,0,0,0-.037.3c-.018,1.939,0,3.882-.055,5.821-.055,1.43,0,2.861,0,4.288v7.189c.029-.07.066-.132.1-.2v11.678Z" transform="translate(-120.998 -81.63)" fill="#19469b"/>
          <path id="Path_5" data-name="Path 5" d="M112.168,132.678a3.011,3.011,0,0,1-.231-.706,17.319,17.319,0,0,1,.22-10.609v-.037h0c.029-.069.066-.132.1-.2s0-.154,0-.23l.022-17.03a1.452,1.452,0,0,0,0-.179v-.08a28.638,28.638,0,0,0-12.172,22.232,27.416,27.416,0,0,0,.787,7.946,28.374,28.374,0,0,0,5.9,11.612,28.084,28.084,0,0,0,7.558,6.336,28.6,28.6,0,0,0,14,3.856,27.932,27.932,0,0,0,4.756-.366,28.5,28.5,0,0,0,16.463-8.78,27.736,27.736,0,0,0,4.518-6.468A28.536,28.536,0,0,0,133.036,98.82a.163.163,0,0,0,0,.037.081.081,0,0,0,0,.029v9.654c0,.227.1.238.274.234h3.172a1.046,1.046,0,0,1,.556.146q3.852,2.257,7.708,4.493a1.006,1.006,0,0,1,.552.98v5.663c0,.732.022,1.463.033,2.2l.1.194a5.308,5.308,0,0,1,.278,1.141,17.414,17.414,0,0,1-.282,8.074h0l-.084.223c.062,1.529-.856,2.689-1.507,3.955l-.022-.227a.365.365,0,0,0-.077.029c-.1.059-.143.176-.2.271a17.461,17.461,0,0,1-5.755,5.853,4.154,4.154,0,0,0-.5.326,1.062,1.062,0,0,0-.113.11.853.853,0,0,1-.834.443.585.585,0,0,0-.161.022.844.844,0,0,0-.124.044,18.408,18.408,0,0,1-2.927,1.068l-.117.04a.325.325,0,0,0-.11.081,1,1,0,0,1-.973.245.429.429,0,0,0-.187-.04,2.02,2.02,0,0,0-.391.059,16.7,16.7,0,0,1-5.016.059,18.259,18.259,0,0,1-4.617-1.3,16.827,16.827,0,0,1-4.84-3.175,16.305,16.305,0,0,1-2.908-3.483.428.428,0,0,0-.176-.194.175.175,0,0,0-.088-.022c0,.069-.018.143-.033.274a18.286,18.286,0,0,1-1.043-1.91,3,3,0,0,1-.366-1.6Z" transform="translate(-100.072 -92.531)" fill="#e37d32"/>
          <path id="Path_6" data-name="Path 6" d="M246.071,255q-2.7,2.228-5.436,4.412a3.951,3.951,0,0,1-5.78-.871q-5.246-7.258-10.448-14.527-3.512-4.888-7.024-9.768c-.176-.245-.154-.329.1-.472a33.01,33.01,0,0,0,8-6.366c.179-.19.366-.388.541-.6l4.84,5.334q5.392,5.934,10.785,11.872c1.635,1.8,3.292,3.582,4.891,5.414a3.878,3.878,0,0,1-.476,5.575Z" transform="translate(-174.391 -173.691)" fill="#19469b"/>
          <path id="Path_7" data-name="Path 7" d="M155.548,136.518a17.121,17.121,0,0,1-14.656-3.922,16.357,16.357,0,0,1-3.417-3.969c-.04-.062-.091-.121-.135-.183V126.45c.179-12.124.1-24.248.1-36.368a.475.475,0,0,1,.366-.538c2.2-.856,4.412-1.738,6.618-2.608.366-.139.366-.139.366.241v46.78a1.654,1.654,0,0,0,.037.52.751.751,0,0,0,1.471-.139V86.83l1.763.732c2.254.951,4.507,1.906,6.768,2.843a.428.428,0,0,1,.311.476q-.022,22.316-.037,44.654A1.006,1.006,0,0,0,155.548,136.518Z" transform="translate(-123.704 -84.928)" fill="#fff"/>
          <path id="Path_8" data-name="Path 8" d="M208.094,156.564a17.669,17.669,0,0,1-3.395,4.255,15.4,15.4,0,0,1-3.249,2.338,1.769,1.769,0,0,0,.062-.648q.033-15.138.069-30.273v-.366a.538.538,0,0,1,.318.128q2.952,1.7,5.9,3.421a.406.406,0,0,1,.245.4q.022,10.243.055,20.52C208.1,156.429,208.1,156.487,208.094,156.564Z" transform="translate(-164.36 -113.49)" fill="#fff"/>
          <path id="Path_9" data-name="Path 9" d="M193.209,162.462a13.42,13.42,0,0,1-3.439,1.255,2.926,2.926,0,0,0,.117-1.024q0-16.1,0-32.194c0-.311.066-.406.388-.391.673.029,1.35.022,2.027,0,.282,0,.366.059.366.366-.018,4.551-.018,9.1-.029,13.65q-.022,8.678-.055,17.352A.9.9,0,0,0,193.209,162.462Z" transform="translate(-156.953 -112.372)" fill="#fff"/>
          <path id="Path_10" data-name="Path 10" d="M133.221,191.505a.981.981,0,0,1-.091-.135Z" transform="translate(-121.034 -151.223)" fill="#fff"/>
          <path id="Path_11" data-name="Path 11" d="M223.75,162.85l.1.194A1.4,1.4,0,0,0,223.75,162.85Z" transform="translate(-178.501 -133.137)" fill="#fff"/>
          <path id="Path_12" data-name="Path 12" d="M142.4,162.246V163a.754.754,0,0,1-.732.732.732.732,0,0,1-.754-.71q-.026-.768,0-1.537a.732.732,0,0,1,.757-.706.765.765,0,0,1,.732.7v.8Z" transform="translate(-125.964 -131.823)" fill="#19469b"/>
          <path id="Path_13" data-name="Path 13" d="M142.4,146.7v.732a.75.75,0,1,1-1.5,0v-1.5a.75.75,0,0,1,1.5-.029c.018.271,0,.545,0,.816Z" transform="translate(-125.961 -121.955)" fill="#19469b"/>
          <path id="Path_14" data-name="Path 14" d="M171.68,175.792v-.732a.757.757,0,0,1,.732-.732.732.732,0,0,1,.765.7c.022.523.026,1.046,0,1.57a.75.75,0,0,1-1.5-.029v-.783Z" transform="translate(-145.48 -140.415)" fill="#19469b"/>
          <path id="Path_15" data-name="Path 15" d="M164.676,188.672v-.732a.751.751,0,0,1,1.5-.077,12.779,12.779,0,0,1,0,1.632.749.749,0,0,1-1.493-.088C164.669,189.173,164.676,188.921,164.676,188.672Z" transform="translate(-141.037 -148.583)" fill="#19469b"/>
          <path id="Path_16" data-name="Path 16" d="M164.672,206.054v-.688a.754.754,0,0,1,.732-.757.732.732,0,0,1,.765.7,14.913,14.913,0,0,1,0,1.566.751.751,0,0,1-1.5-.066C164.665,206.551,164.672,206.3,164.672,206.054Z" transform="translate(-141.033 -159.618)" fill="#19469b"/>
          <path id="Path_17" data-name="Path 17" d="M180.168,147.366v.732a.754.754,0,0,1-1.5,0q-.029-.754,0-1.5a.754.754,0,0,1,1.5.026C180.176,146.883,180.168,147.125,180.168,147.366Z" transform="translate(-149.901 -122.39)" fill="#19469b"/>
          <path id="Path_18" data-name="Path 18" d="M150.364,191.006v-.688a.75.75,0,0,1,1.5-.08,13.745,13.745,0,0,1,0,1.6.732.732,0,0,1-.787.67.75.75,0,0,1-.71-.754C150.357,191.507,150.364,191.255,150.364,191.006Z" transform="translate(-131.961 -150.076)" fill="#19469b"/>
          <path id="Path_19" data-name="Path 19" d="M150.37,128.578v-.688a.768.768,0,0,1,.713-.754.732.732,0,0,1,.783.68,13.746,13.746,0,0,1,0,1.6.747.747,0,0,1-1.493-.059v-.783Z" transform="translate(-131.967 -110.487)" fill="#19469b"/>
          <path id="Path_20" data-name="Path 20" d="M142.378,131.006v.754a.75.75,0,1,1-1.5,0q-.026-.768,0-1.537a.75.75,0,0,1,1.5-.018c.018.26,0,.523,0,.783Z" transform="translate(-125.939 -111.997)" fill="#19469b"/>
          <path id="Path_21" data-name="Path 21" d="M173.223,191.427v.688a.776.776,0,0,1-.761.779.757.757,0,0,1-.732-.761v-1.463a.75.75,0,0,1,1.5-.047c.022.271,0,.545,0,.816Z" transform="translate(-145.512 -150.317)" fill="#19469b"/>
          <path id="Path_22" data-name="Path 22" d="M164.678,173.1v-.688a.749.749,0,0,1,1.5-.073,14.566,14.566,0,0,1,0,1.6.75.75,0,0,1-1.5-.055Z" transform="translate(-141.04 -138.7)" fill="#19469b"/>
          <path id="Path_23" data-name="Path 23" d="M171.68,208.659v-.732a.751.751,0,0,1,1.5-.07,15.586,15.586,0,0,1,0,1.6.746.746,0,1,1-1.493,0v-.816Z" transform="translate(-145.48 -161.257)" fill="#19469b"/>
          <path id="Path_24" data-name="Path 24" d="M150.37,97.423v-.688a.754.754,0,0,1,.71-.739.732.732,0,0,1,.787.673,13.733,13.733,0,0,1,0,1.6.75.75,0,0,1-1.5-.051v-.783Z" transform="translate(-131.967 -90.739)" fill="#19469b"/>
          <path id="Path_25" data-name="Path 25" d="M180.161,131.849v.754a.75.75,0,0,1-1.5.018q-.033-.768,0-1.537a.754.754,0,0,1,1.5,0C180.172,131.341,180.161,131.6,180.161,131.849Z" transform="translate(-149.897 -112.547)" fill="#19469b"/>
          <path id="Path_26" data-name="Path 26" d="M180.22,116.293v.75a.754.754,0,0,1-.732.732.732.732,0,0,1-.732-.684c-.026-.53-.026-1.068,0-1.6a.732.732,0,0,1,.757-.669.761.761,0,0,1,.732.7v.787Z" transform="translate(-149.956 -102.677)" fill="#19469b"/>
          <path id="Path_27" data-name="Path 27" d="M164.679,95.373v-.732a.749.749,0,0,1,1.5-.069,13.723,13.723,0,0,1,0,1.6.747.747,0,0,1-1.493-.059c0-.249,0-.5,0-.732Z" transform="translate(-141.04 -89.384)" fill="#19469b"/>
          <path id="Path_28" data-name="Path 28" d="M180.169,178.394v.75a.754.754,0,0,1-1.5,0c-.018-.5,0-1,0-1.5a.75.75,0,1,1,1.5,0v.754Z" transform="translate(-149.906 -142.04)" fill="#19469b"/>
          <path id="Path_29" data-name="Path 29" d="M140.894,177.8v-.732a.748.748,0,0,1,1.5,0q.022.75,0,1.5a.75.75,0,1,1-1.5,0v-.787Z" transform="translate(-125.955 -141.691)" fill="#19469b"/>
          <path id="Path_30" data-name="Path 30" d="M180.138,162.861v.732a.765.765,0,0,1-.783.732.732.732,0,0,1-.732-.7c-.018-.512-.022-1.025,0-1.537a.75.75,0,0,1,1.5.018A7.492,7.492,0,0,1,180.138,162.861Z" transform="translate(-149.874 -132.182)" fill="#19469b"/>
          <path id="Path_31" data-name="Path 31" d="M150.368,175.426v-.684a.751.751,0,0,1,1.5-.055q.038.768,0,1.536a.743.743,0,0,1-1.485-.022C150.361,175.927,150.368,175.678,150.368,175.426Z" transform="translate(-131.965 -140.203)" fill="#19469b"/>
          <path id="Path_32" data-name="Path 32" d="M164.68,142.1v-.732a.748.748,0,0,1,1.489-.088,12.634,12.634,0,0,1,0,1.665.749.749,0,0,1-1.489-.1v-.75Z" transform="translate(-141.041 -119.049)" fill="#19469b"/>
          <path id="Path_33" data-name="Path 33" d="M173.2,144.7v.732a.752.752,0,0,1-1.5,0v-1.463a.748.748,0,1,1,1.5-.04c.022.26,0,.519,0,.783Z" transform="translate(-145.493 -120.675)" fill="#19469b"/>
          <path id="Path_34" data-name="Path 34" d="M166.184,110.959v.732a.79.79,0,0,1-.783.765.754.754,0,0,1-.732-.776q0-.732,0-1.438a.75.75,0,0,1,1.5-.055c.022.26,0,.523,0,.787Z" transform="translate(-141.034 -99.281)" fill="#19469b"/>
          <path id="Path_35" data-name="Path 35" d="M164.672,126.47v-.732a.749.749,0,1,1,1.5-.062,14.912,14.912,0,0,1,0,1.566.751.751,0,0,1-1.5-.066C164.665,126.949,164.672,126.711,164.672,126.47Z" transform="translate(-141.033 -109.107)" fill="#19469b"/>
          <path id="Path_36" data-name="Path 36" d="M171.68,98.1v-.732a.758.758,0,0,1,1.515-.026q.029.768,0,1.537a.732.732,0,0,1-.765.7.772.772,0,0,1-.732-.732v-.732Z" transform="translate(-145.48 -91.146)" fill="#19469b"/>
          <path id="Path_37" data-name="Path 37" d="M171.68,113.592v-.732a.751.751,0,0,1,1.5-.04c.022.523.022,1.05,0,1.569a.748.748,0,0,1-1.5-.026v-.787Z" transform="translate(-145.48 -100.97)" fill="#19469b"/>
          <path id="Path_38" data-name="Path 38" d="M150.37,113.017v-.688a.765.765,0,0,1,.706-.761.754.754,0,0,1,.79.673,13.684,13.684,0,0,1,0,1.6.747.747,0,1,1-1.493-.07v-.754Z" transform="translate(-131.967 -100.615)" fill="#19469b"/>
          <path id="Path_39" data-name="Path 39" d="M150.37,144.245v-.688a.751.751,0,0,1,1.5-.066,13.7,13.7,0,0,1,0,1.6.75.75,0,0,1-1.5-.048v-.783Z" transform="translate(-131.967 -120.437)" fill="#19469b"/>
          <path id="Path_40" data-name="Path 40" d="M150.37,159.843v-.688a.751.751,0,0,1,1.5-.088,13.779,13.779,0,0,1,0,1.6.747.747,0,1,1-1.493-.077v-.732Z" transform="translate(-131.966 -130.316)" fill="#19469b"/>
          <path id="Path_41" data-name="Path 41" d="M178.621,100.721v-.75a.75.75,0,0,1,.732-.732.732.732,0,0,1,.754.706c.018.512.018,1.024,0,1.533a.755.755,0,0,1-1.5.015c-.022-.26,0-.523,0-.787Z" transform="translate(-149.865 -92.797)" fill="#19469b"/>
          <path id="Path_42" data-name="Path 42" d="M180.183,211.366v.754a.746.746,0,0,1-1.489.018c-.022-.512-.018-1.024,0-1.537a.731.731,0,0,1,.757-.7.757.757,0,0,1,.732.684v.084C180.186,210.887,180.186,211.128,180.183,211.366Z" transform="translate(-149.919 -162.973)" fill="#19469b"/>
          <path id="Path_43" data-name="Path 43" d="M171.655,160.265v-.732a.772.772,0,0,1,.732-.754.761.761,0,0,1,.754.732q.029.754,0,1.5a.75.75,0,0,1-1.5,0v-.754Z" transform="translate(-145.455 -130.555)" fill="#19469b"/>
          <path id="Path_44" data-name="Path 44" d="M140.9,193.426v-.684a.75.75,0,0,1,.761-.732.732.732,0,0,1,.732.732q.022.754,0,1.5a.743.743,0,0,1-1.485.033v-.816Z" transform="translate(-125.961 -151.628)" fill="#19469b"/>
          <path id="Path_45" data-name="Path 45" d="M171.667,129.152v-.732a.747.747,0,0,1,1.489-.069,15.529,15.529,0,0,1,0,1.6.75.75,0,0,1-1.5-.037v-.783Z" transform="translate(-145.468 -110.838)" fill="#19469b"/>
          <path id="Path_46" data-name="Path 46" d="M142.4,99.865v.75a.75.75,0,0,1-1.5,0v-1.5a.754.754,0,0,1,1.5,0v.754Z" transform="translate(-125.961 -92.273)" fill="#19469b"/>
          <path id="Path_47" data-name="Path 47" d="M164.667,157.53V156.8a.747.747,0,0,1,1.493-.077,13.481,13.481,0,0,1,0,1.632.754.754,0,0,1-1.5-.084C164.66,158.031,164.671,157.782,164.667,157.53Z" transform="translate(-141.029 -128.8)" fill="#19469b"/>
          <path id="Path_48" data-name="Path 48" d="M180.161,194.086v.732a.75.75,0,1,1-1.5.029q-.033-.785,0-1.569a.752.752,0,0,1,1.493,0,.4.4,0,0,1,0,.066Z" transform="translate(-149.897 -152.014)" fill="#19469b"/>
          <path id="Path_49" data-name="Path 49" d="M142.4,115.463v.754a.776.776,0,0,1-.754.732.765.765,0,0,1-.732-.7c-.022-.519-.022-1.046,0-1.569a.732.732,0,0,1,.754-.684.75.75,0,0,1,.75.681.318.318,0,0,1,0,.062v.732Z" transform="translate(-125.958 -102.157)" fill="#19469b"/>
          <path id="Path_50" data-name="Path 50" d="M206.423,161.527a3.471,3.471,0,0,1-.044.52.732.732,0,1,1-1.463-.044,3.515,3.515,0,0,1,0-.94.75.75,0,0,1,1.493-.022,3.571,3.571,0,0,1,0,.487Z" transform="translate(-166.537 -131.569)" fill="#19469b"/>
          <path id="Path_51" data-name="Path 51" d="M211.906,186.362v-.424a.746.746,0,0,1,1.467-.128,2.756,2.756,0,0,1,0,1.134.746.746,0,0,1-1.474-.124C211.9,186.669,211.906,186.516,211.906,186.362Z" transform="translate(-170.985 -147.338)" fill="#19469b"/>
          <path id="Path_52" data-name="Path 52" d="M206.433,140.822a3.453,3.453,0,0,1-.04.629.732.732,0,0,1-.8.567.7.7,0,0,1-.67-.677,7.869,7.869,0,0,1,0-.882.734.734,0,0,1,1.463-.113A3.3,3.3,0,0,1,206.433,140.822Z" transform="translate(-166.551 -118.436)" fill="#19469b"/>
          <path id="Path_53" data-name="Path 53" d="M204.93,203.756v-.424a.75.75,0,0,1,.7-.7.731.731,0,0,1,.768.574,2.756,2.756,0,0,1,0,1.134.733.733,0,0,1-1.463-.1v-.487Z" transform="translate(-166.566 -158.366)" fill="#19469b"/>
          <path id="Path_54" data-name="Path 54" d="M206.434,181.912a2.61,2.61,0,0,1-.048.67.732.732,0,0,1-.8.534.71.71,0,0,1-.662-.655,7.106,7.106,0,0,1,0-.882.732.732,0,0,1,.691-.732.757.757,0,0,1,.794.633A3.085,3.085,0,0,1,206.434,181.912Z" transform="translate(-166.555 -144.549)" fill="#19469b"/>
          <path id="Path_55" data-name="Path 55" d="M204.922,151.046v-.457a.734.734,0,0,1,1.463-.124,2.654,2.654,0,0,1,0,1.163.734.734,0,1,1-1.463-.124C204.911,151.35,204.922,151.2,204.922,151.046Z" transform="translate(-166.558 -124.856)" fill="#19469b"/>
          <path id="Path_56" data-name="Path 56" d="M211.9,155.671v-.457a.754.754,0,0,1,.677-.68.732.732,0,0,1,.776.52,2.561,2.561,0,0,1,0,1.2.744.744,0,0,1-1.463-.154C211.89,155.956,211.9,155.8,211.9,155.671Z" transform="translate(-170.98 -127.86)" fill="#19469b"/>
          <path id="Path_57" data-name="Path 57" d="M211.919,165.908v-.391a.732.732,0,0,1,.732-.757.75.75,0,0,1,.772.691,5.409,5.409,0,0,1,0,.878.751.751,0,1,1-1.5-.062Z" transform="translate(-170.998 -134.347)" fill="#19469b"/>
          <path id="Path_58" data-name="Path 58" d="M211.913,175.892v-.457a.735.735,0,1,1,1.463-.15,2.559,2.559,0,0,1,0,1.229.7.7,0,0,1-.794.52.7.7,0,0,1-.658-.651v-.49Z" transform="translate(-170.992 -140.603)" fill="#19469b"/>
          <path id="Path_59" data-name="Path 59" d="M211.891,145.405v-.424a.75.75,0,0,1,.7-.7.732.732,0,0,1,.772.571,2.739,2.739,0,0,1,0,1.1.746.746,0,0,1-1.478-.135v-.424Z" transform="translate(-170.974 -121.362)" fill="#19469b"/>
          <path id="Path_60" data-name="Path 60" d="M213.386,196.621a1.964,1.964,0,0,1-.037.585.779.779,0,0,1-.757.556.732.732,0,0,1-.706-.691c-.018-.271,0-.545,0-.816a.754.754,0,0,1,.732-.776.776.776,0,0,1,.786.732A4.086,4.086,0,0,1,213.386,196.621Z" transform="translate(-170.972 -153.829)" fill="#19469b"/>
          <path id="Path_61" data-name="Path 61" d="M206.459,171.723a1.936,1.936,0,0,1-.051.615.786.786,0,0,1-.753.523.732.732,0,0,1-.681-.673,6.936,6.936,0,0,1,0-.915.732.732,0,0,1,.684-.706.764.764,0,0,1,.794.589A2.558,2.558,0,0,1,206.459,171.723Z" transform="translate(-166.585 -138.029)" fill="#19469b"/>
          <path id="Path_62" data-name="Path 62" d="M204.922,192.217v-.424a.747.747,0,0,1,1.463-.139,2.694,2.694,0,0,1,0,1.134.734.734,0,0,1-1.463-.113C204.911,192.531,204.922,192.37,204.922,192.217Z" transform="translate(-166.558 -151.056)" fill="#19469b"/>
        </g>
        <path id="Path_229" data-name="Path 229" d="M38.694,18.766l-.309-4.744a24.3,24.3,0,0,1-5.415,4.229,17.112,17.112,0,0,1-9.024,2.166,19.472,19.472,0,0,1-10.107-2.888A22.262,22.262,0,0,1,5.846,9.02,27.374,27.374,0,0,1,2.7-4.542a28,28,0,0,1,1.65-10,24.246,24.246,0,0,1,4.125-7.219,22.515,22.515,0,0,1,6.188-5.208,28.943,28.943,0,0,1,6.7-2.785,22.635,22.635,0,0,1,5.672-.877,37.428,37.428,0,0,1,5,.258,18.374,18.374,0,0,1,3.2.722q1.392.464,3.146,1.186V-50.025H50.452V18.766ZM38.385-2.686V-17.537q-3.2-2.578-10-2.578a11.734,11.734,0,0,0-5.93,1.392,14.146,14.146,0,0,0-4.177,3.661,16.849,16.849,0,0,0-3.3,10.52A16.706,16.706,0,0,0,18.067,5.771Q21.161,9.9,27.04,9.9a10.512,10.512,0,0,0,6.7-1.96,10.98,10.98,0,0,0,3.558-4.9A16.5,16.5,0,0,0,38.385-2.686ZM97.172,4.327l6.6,7.426-1.7,1.7a21.726,21.726,0,0,1-4.022,2.991,28.117,28.117,0,0,1-6.7,2.785A35.152,35.152,0,0,1,81.6,20.417,26.155,26.155,0,0,1,68.14,17.065a23.33,23.33,0,0,1-8.921-9.334,28.651,28.651,0,0,1-3.2-13.717,26.214,26.214,0,0,1,3.146-12.84A23.889,23.889,0,0,1,67.83-27.9a24.043,24.043,0,0,1,12.737-3.352,24.073,24.073,0,0,1,11.242,2.372,20.206,20.206,0,0,1,7.323,6.343,26.633,26.633,0,0,1,4.022,8.921,41.515,41.515,0,0,1,1.238,10.107v1.753h-36.1a9.817,9.817,0,0,0,2.011,6.137A13.975,13.975,0,0,0,75.411,8.5,14.319,14.319,0,0,0,81.7,10,24.06,24.06,0,0,0,89.54,8.917a19.52,19.52,0,0,0,4.951-2.424A23.457,23.457,0,0,0,97.172,4.327ZM68.191-10.524H91.912a10.334,10.334,0,0,0-1.289-4.9,10.788,10.788,0,0,0-3.764-4.022,11.392,11.392,0,0,0-6.291-1.6,13.187,13.187,0,0,0-6.755,1.6,11.471,11.471,0,0,0-4.177,4.022A9.483,9.483,0,0,0,68.191-10.524Zm41.46,29.29V-50.025h12.17v37.541l17.43-17.12h14.336L135.435-11.762,155.65,18.766H141.108L127.081-3.511l-5.26,5.157V18.766Zm48.68,0V-50.025H170.3v25.371a20.46,20.46,0,0,1,5.466-4.022,18.869,18.869,0,0,1,9.076-1.96q8.973,0,13.769,5.569t4.8,14.439V18.766h-12.17v-29.29A9.731,9.731,0,0,0,188.7-17.64a8.766,8.766,0,0,0-6.549-2.578,10.693,10.693,0,0,0-8.354,3.713,13.174,13.174,0,0,0-3.3,9.076v26.2Z" transform="translate(266.844 50.025)" fill="#e37d32"/>
        <path id="Path_228" data-name="Path 228" d="M43.851,3.033l6.6,7.426-1.7,1.7a21.726,21.726,0,0,1-4.022,2.991,28.116,28.116,0,0,1-6.7,2.785,35.152,35.152,0,0,1-9.746,1.186A26.155,26.155,0,0,1,14.818,15.77,23.33,23.33,0,0,1,5.9,6.437,28.651,28.651,0,0,1,2.7-7.28a26.214,26.214,0,0,1,3.146-12.84A23.889,23.889,0,0,1,14.509-29.2a24.043,24.043,0,0,1,12.737-3.352,24.073,24.073,0,0,1,11.242,2.372,20.206,20.206,0,0,1,7.323,6.343,26.633,26.633,0,0,1,4.022,8.921A41.515,41.515,0,0,1,51.071-4.805v1.753h-36.1a9.817,9.817,0,0,0,2.011,6.137A13.976,13.976,0,0,0,22.089,7.21a14.319,14.319,0,0,0,6.291,1.5,24.06,24.06,0,0,0,7.838-1.083A19.52,19.52,0,0,0,41.17,5.2,23.456,23.456,0,0,0,43.851,3.033ZM14.87-11.818H38.591a10.334,10.334,0,0,0-1.289-4.9,10.789,10.789,0,0,0-3.764-4.022,11.392,11.392,0,0,0-6.291-1.6,13.187,13.187,0,0,0-6.755,1.6,11.471,11.471,0,0,0-4.177,4.022A9.483,9.483,0,0,0,14.87-11.818ZM53.958,11.593l7.323-7.941a18.212,18.212,0,0,0,5.724,3.764,19.692,19.692,0,0,0,7.89,1.5,15.325,15.325,0,0,0,6.291-1.083,3.538,3.538,0,0,0,2.372-3.352,3.9,3.9,0,0,0-.877-2.527A9.031,9.031,0,0,0,79.227-.216a52.735,52.735,0,0,0-7.941-2.321,41.336,41.336,0,0,1-6.807-2.475A17.138,17.138,0,0,1,58.342-9.7a11.622,11.622,0,0,1-2.527-7.684,12.192,12.192,0,0,1,2.939-8.251A18.428,18.428,0,0,1,66.283-30.8a26.233,26.233,0,0,1,9.437-1.753,38.934,38.934,0,0,1,10.932,1.341A24.559,24.559,0,0,1,94.7-27.186l-6.291,8.56a20.92,20.92,0,0,0-5.208-2.63,21.739,21.739,0,0,0-7.477-1.186q-4.229,0-5.982,1.289a3.805,3.805,0,0,0-1.753,3.146q0,2.269,2.836,3.558a53.008,53.008,0,0,0,8.818,2.733A29.007,29.007,0,0,1,91.345-6.61q4.383,3.455,4.383,10.468a12.372,12.372,0,0,1-2.836,8.1,18.141,18.141,0,0,1-7.529,5.311A27.944,27.944,0,0,1,75,19.122a37.2,37.2,0,0,1-12.222-1.908A20.45,20.45,0,0,1,53.958,11.593ZM105.629.97V-21H97.378v-9.9h8.251V-46.575H117.8V-30.9h13V-21h-13V.145a11.974,11.974,0,0,0,1.392,6.343,4.9,4.9,0,0,0,4.486,2.217,10.642,10.642,0,0,0,4.59-.825,20.912,20.912,0,0,0,3.249-1.96l5.157,7.529a26.91,26.91,0,0,1-7.116,4.229,21.8,21.8,0,0,1-7.838,1.341q-8.87,0-12.479-4.951T105.629.97Zm62.088,16.5-.309-4.538a16.644,16.644,0,0,1-6.033,4.229,21.259,21.259,0,0,1-8.921,1.856,19.691,19.691,0,0,1-7.787-1.65,15.04,15.04,0,0,1-6.394-5.157,14.79,14.79,0,0,1-2.527-8.87q0-8.251,5.879-12.789t15.367-4.538q1.753,0,4.177.1t6.24.309v-1.134a6.594,6.594,0,0,0-2.888-5.672,12.666,12.666,0,0,0-7.529-2.063A21.081,21.081,0,0,0,148.74-21.1a36.77,36.77,0,0,0-5.466,2.888L137.7-26.464a35.129,35.129,0,0,1,4.641-2.836,28.81,28.81,0,0,1,6.6-2.321,42.865,42.865,0,0,1,9.695-.928q9.282,0,14.852,4.9a16.053,16.053,0,0,1,5.569,12.634V17.472ZM167.407.352V-4.393q-2.372-.206-5.157-.309t-4.229-.1q-5.879,0-8.251,2.321A7.235,7.235,0,0,0,147.4,2.827a5.837,5.837,0,0,0,2.217,4.847q2.217,1.753,6.549,1.753A12.146,12.146,0,0,0,161.58,8.19a12.045,12.045,0,0,0,4.177-3.3A7.1,7.1,0,0,0,167.407.352ZM190.819.97V-21h-8.251v-9.9h8.251V-46.575h12.17V-30.9h13V-21h-13V.145a11.973,11.973,0,0,0,1.392,6.343,4.9,4.9,0,0,0,4.486,2.217,10.642,10.642,0,0,0,4.59-.825,20.911,20.911,0,0,0,3.249-1.96l5.157,7.529a26.909,26.909,0,0,1-7.116,4.229,21.8,21.8,0,0,1-7.838,1.341q-8.87,0-12.479-4.951T190.819.97Zm70.029,2.063,6.6,7.426-1.7,1.7a21.727,21.727,0,0,1-4.022,2.991,28.116,28.116,0,0,1-6.7,2.785,35.152,35.152,0,0,1-9.746,1.186,26.155,26.155,0,0,1-13.459-3.352,23.33,23.33,0,0,1-8.921-9.334A28.65,28.65,0,0,1,219.7-7.28a26.213,26.213,0,0,1,3.146-12.84,23.889,23.889,0,0,1,8.663-9.076,24.043,24.043,0,0,1,12.737-3.352,24.073,24.073,0,0,1,11.242,2.372,20.207,20.207,0,0,1,7.323,6.343,26.634,26.634,0,0,1,4.022,8.921,41.513,41.513,0,0,1,1.238,10.107v1.753h-36.1a9.817,9.817,0,0,0,2.011,6.137,13.976,13.976,0,0,0,5.105,4.125,14.319,14.319,0,0,0,6.291,1.5,24.06,24.06,0,0,0,7.838-1.083A19.52,19.52,0,0,0,258.167,5.2,23.459,23.459,0,0,0,260.848,3.033ZM231.867-11.818h23.721a10.334,10.334,0,0,0-1.289-4.9,10.789,10.789,0,0,0-3.764-4.022,11.392,11.392,0,0,0-6.291-1.6,13.187,13.187,0,0,0-6.755,1.6,11.471,11.471,0,0,0-4.177,4.022A9.482,9.482,0,0,0,231.867-11.818Z" transform="translate(-2.7 51.747)" fill="#19469b"/>
      </g>
      <path id="Path_306536" data-name="Path 306536" d="M13.949,22.506a4.911,4.911,0,0,1,2.318,1.034,6.066,6.066,0,0,1,1.668,2.068,6.015,6.015,0,0,1-.283,5.82,6.118,6.118,0,0,1-2.618,2.234,9.346,9.346,0,0,1-4.052.817H2.31V11.234h8.338a9.432,9.432,0,0,1,4.035.784,5.712,5.712,0,0,1,2.5,2.118,5.546,5.546,0,0,1,.834,3A5.184,5.184,0,0,1,16.9,20.555,6.252,6.252,0,0,1,13.949,22.506Zm-8.6-1.234h5.1a4.924,4.924,0,0,0,3.3-1A3.452,3.452,0,0,0,14.916,17.5a3.452,3.452,0,0,0-1.167-2.768,5.035,5.035,0,0,0-3.368-1H5.345Zm5.369,10.705a5.327,5.327,0,0,0,3.535-1.067,3.67,3.67,0,0,0,1.267-2.968,3.769,3.769,0,0,0-1.334-3.052,5.378,5.378,0,0,0-3.568-1.117H5.345v8.2Zm10.906-6.7a10.266,10.266,0,0,1,1.134-4.919,8.227,8.227,0,0,1,3.118-3.285A8.553,8.553,0,0,1,30.291,15.9a8.11,8.11,0,0,1,4.169,1.034,6.889,6.889,0,0,1,2.635,2.6V16.2h3.068V34.479H37.094v-3.4a7.15,7.15,0,0,1-2.685,2.651,8.031,8.031,0,0,1-4.152,1.051,8.284,8.284,0,0,1-4.4-1.2,8.421,8.421,0,0,1-3.1-3.368A10.49,10.49,0,0,1,21.62,25.274Zm15.474.033a7.43,7.43,0,0,0-.834-3.6,5.888,5.888,0,0,0-2.251-2.351,6.384,6.384,0,0,0-6.22-.017,5.807,5.807,0,0,0-2.234,2.335,7.43,7.43,0,0,0-.834,3.6,7.6,7.6,0,0,0,.834,3.652,5.9,5.9,0,0,0,2.234,2.368,6.043,6.043,0,0,0,3.1.817,6.133,6.133,0,0,0,3.118-.817,5.862,5.862,0,0,0,2.251-2.368A7.528,7.528,0,0,0,37.094,25.308Zm14.674,9.471A9.453,9.453,0,0,1,48,34.062a6.357,6.357,0,0,1-2.635-2A5.325,5.325,0,0,1,44.3,29.11h3.135a3.076,3.076,0,0,0,1.284,2.234,4.886,4.886,0,0,0,3.018.867,4.392,4.392,0,0,0,2.735-.767,2.344,2.344,0,0,0,1-1.934A1.907,1.907,0,0,0,54.4,27.726a14.963,14.963,0,0,0-3.3-1.151,24.266,24.266,0,0,1-3.318-1.084,5.888,5.888,0,0,1-2.2-1.634,4.265,4.265,0,0,1-.917-2.851,4.321,4.321,0,0,1,.834-2.568,5.652,5.652,0,0,1,2.368-1.851,8.521,8.521,0,0,1,3.5-.684,7.477,7.477,0,0,1,4.9,1.534,5.527,5.527,0,0,1,2,4.2H55.237a3.136,3.136,0,0,0-1.151-2.3,4.29,4.29,0,0,0-2.818-.867,4.347,4.347,0,0,0-2.6.7,2.164,2.164,0,0,0-.967,1.834,2.011,2.011,0,0,0,.584,1.484,4.263,4.263,0,0,0,1.467.934,25.285,25.285,0,0,0,2.451.784,26.4,26.4,0,0,1,3.2,1.051,5.6,5.6,0,0,1,2.118,1.551,4.147,4.147,0,0,1,.917,2.7,4.625,4.625,0,0,1-.834,2.7A5.56,5.56,0,0,1,55.253,34.1,8.4,8.4,0,0,1,51.768,34.779Zm18.709-9.471a10.339,10.339,0,0,1,1.134-4.952,8.158,8.158,0,0,1,3.152-3.285,10.007,10.007,0,0,1,10.172.467,7.713,7.713,0,0,1,2.885,4.536H84.551a4.693,4.693,0,0,0-1.818-2.635,5.609,5.609,0,0,0-3.352-.967,5.376,5.376,0,0,0-4.2,1.784,7.31,7.31,0,0,0-1.6,5.053,7.428,7.428,0,0,0,1.6,5.1,5.353,5.353,0,0,0,4.2,1.8,5.676,5.676,0,0,0,3.335-.934,4.735,4.735,0,0,0,1.834-2.668H87.82A8.039,8.039,0,0,1,84.885,33.1a8.791,8.791,0,0,1-5.5,1.684,9.055,9.055,0,0,1-4.619-1.167,8.132,8.132,0,0,1-3.152-3.3A10.512,10.512,0,0,1,70.478,25.308Zm20.244-.033a10.266,10.266,0,0,1,1.134-4.919,8.227,8.227,0,0,1,3.118-3.285A8.553,8.553,0,0,1,99.392,15.9a8.11,8.11,0,0,1,4.169,1.034,6.889,6.889,0,0,1,2.635,2.6V16.2h3.068V34.479H106.2v-3.4a7.15,7.15,0,0,1-2.685,2.651,8.031,8.031,0,0,1-4.152,1.051,8.284,8.284,0,0,1-4.4-1.2,8.421,8.421,0,0,1-3.1-3.368A10.49,10.49,0,0,1,90.721,25.274Zm15.474.033a7.43,7.43,0,0,0-.834-3.6,5.888,5.888,0,0,0-2.251-2.351,6.384,6.384,0,0,0-6.22-.017,5.807,5.807,0,0,0-2.234,2.335,7.43,7.43,0,0,0-.834,3.6,7.6,7.6,0,0,0,.834,3.652,5.9,5.9,0,0,0,2.234,2.368,6.043,6.043,0,0,0,3.1.817,6.133,6.133,0,0,0,3.118-.817,5.862,5.862,0,0,0,2.251-2.368A7.528,7.528,0,0,0,106.2,25.308ZM117.435,9.8V34.479H114.4V9.8Zm8.2,0V34.479H122.6V9.8Zm24.279,24.679-7.17-8.071v8.071h-3.035V9.8h3.035V24.307l7.037-8.1h4.235l-8.6,9.1,8.638,9.171Zm5.836-9.2a10.266,10.266,0,0,1,1.134-4.919,8.227,8.227,0,0,1,3.118-3.285,8.553,8.553,0,0,1,4.419-1.167,8.11,8.11,0,0,1,4.169,1.034,6.889,6.889,0,0,1,2.635,2.6V16.2H174.3V34.479h-3.068v-3.4a7.15,7.15,0,0,1-2.685,2.651,8.031,8.031,0,0,1-4.152,1.051,8.284,8.284,0,0,1-4.4-1.2,8.421,8.421,0,0,1-3.1-3.368A10.49,10.49,0,0,1,155.754,25.274Zm15.474.033a7.43,7.43,0,0,0-.834-3.6,5.888,5.888,0,0,0-2.251-2.351,6.384,6.384,0,0,0-6.22-.017,5.807,5.807,0,0,0-2.234,2.335,7.43,7.43,0,0,0-.834,3.6,7.6,7.6,0,0,0,.834,3.652,5.9,5.9,0,0,0,2.234,2.368,6.043,6.043,0,0,0,3.1.817,6.133,6.133,0,0,0,3.118-.817,5.862,5.862,0,0,0,2.251-2.368A7.528,7.528,0,0,0,171.229,25.308Zm11.239-6.136a5.822,5.822,0,0,1,2.285-2.435,7.061,7.061,0,0,1,3.618-.867V19h-.8q-5.1,0-5.1,5.536v9.938h-3.035V16.2h3.035Zm19.61,15.308-7.17-8.071v8.071h-3.035V9.8h3.035V24.307l7.037-8.1h4.235l-8.6,9.1,8.638,9.171Zm23.645-9.838a17.862,17.862,0,0,1-.1,1.834H211.015a5.744,5.744,0,0,0,5.936,5.736,5.612,5.612,0,0,0,3.285-.917,4.855,4.855,0,0,0,1.851-2.451h3.268a7.856,7.856,0,0,1-2.935,4.285,8.858,8.858,0,0,1-5.469,1.651,9.238,9.238,0,0,1-4.652-1.167,8.262,8.262,0,0,1-3.218-3.318,10.291,10.291,0,0,1-1.167-4.986,10.438,10.438,0,0,1,1.134-4.969,7.96,7.96,0,0,1,3.185-3.285,9.481,9.481,0,0,1,4.719-1.151,9.172,9.172,0,0,1,4.6,1.134,7.852,7.852,0,0,1,3.085,3.118A9.2,9.2,0,0,1,225.723,24.641Zm-3.135-.634a5.6,5.6,0,0,0-.767-2.985,4.988,4.988,0,0,0-2.084-1.9,6.5,6.5,0,0,0-2.918-.65,5.625,5.625,0,0,0-3.919,1.467,5.979,5.979,0,0,0-1.851,4.069ZM237.5,25.274a10.266,10.266,0,0,1,1.134-4.919,8.227,8.227,0,0,1,3.118-3.285A8.616,8.616,0,0,1,246.2,15.9a8.266,8.266,0,0,1,3.969.984,7.1,7.1,0,0,1,2.8,2.585V9.8h3.068V34.479H252.97V31.044a7.1,7.1,0,0,1-2.668,2.685,7.942,7.942,0,0,1-4.135,1.051,8.314,8.314,0,0,1-7.537-4.569A10.49,10.49,0,0,1,237.5,25.274Zm15.474.033a7.43,7.43,0,0,0-.834-3.6,5.888,5.888,0,0,0-2.251-2.351,6.384,6.384,0,0,0-6.22-.017,5.807,5.807,0,0,0-2.234,2.335,7.43,7.43,0,0,0-.834,3.6,7.6,7.6,0,0,0,.834,3.652,5.9,5.9,0,0,0,2.234,2.368,6.043,6.043,0,0,0,3.1.817,6.133,6.133,0,0,0,3.118-.817,5.862,5.862,0,0,0,2.251-2.368A7.528,7.528,0,0,0,252.97,25.308Zm24.879-.667a17.866,17.866,0,0,1-.1,1.834H263.142a5.744,5.744,0,0,0,5.936,5.736,5.612,5.612,0,0,0,3.285-.917,4.855,4.855,0,0,0,1.851-2.451h3.268a7.857,7.857,0,0,1-2.935,4.285,8.858,8.858,0,0,1-5.469,1.651,9.238,9.238,0,0,1-4.652-1.167,8.262,8.262,0,0,1-3.218-3.318,10.291,10.291,0,0,1-1.167-4.986,10.438,10.438,0,0,1,1.134-4.969,7.96,7.96,0,0,1,3.185-3.285,9.481,9.481,0,0,1,4.719-1.151,9.172,9.172,0,0,1,4.6,1.134,7.852,7.852,0,0,1,3.085,3.118A9.2,9.2,0,0,1,277.849,24.641Zm-3.135-.634a5.6,5.6,0,0,0-.767-2.985,4.988,4.988,0,0,0-2.084-1.9,6.5,6.5,0,0,0-2.918-.65,5.625,5.625,0,0,0-3.919,1.467,5.979,5.979,0,0,0-1.851,4.069Zm17.342,10.472-7.17-8.071v8.071h-3.035V9.8h3.035V24.307l7.037-8.1h4.235l-8.6,9.1,8.638,9.171ZM308.1,15.87a7.851,7.851,0,0,1,3.735.884,6.277,6.277,0,0,1,2.618,2.651,8.979,8.979,0,0,1,.951,4.3V34.479h-3V24.141a5.877,5.877,0,0,0-1.367-4.185A4.886,4.886,0,0,0,307.3,18.5a5,5,0,0,0-3.819,1.5,6.131,6.131,0,0,0-1.417,4.369V34.479h-3.035V9.8h3.035v9a5.979,5.979,0,0,1,2.485-2.168A8.044,8.044,0,0,1,308.1,15.87Zm20.244,18.91a9.357,9.357,0,0,1-4.652-1.167,8.31,8.31,0,0,1-3.268-3.318,10.174,10.174,0,0,1-1.184-4.986,9.881,9.881,0,0,1,1.217-4.952,8.388,8.388,0,0,1,3.318-3.3,10.184,10.184,0,0,1,9.4,0,8.417,8.417,0,0,1,3.318,3.285,9.857,9.857,0,0,1,1.217,4.969,9.739,9.739,0,0,1-1.251,4.986,8.668,8.668,0,0,1-3.385,3.318A9.706,9.706,0,0,1,328.341,34.779Zm0-2.668a6.408,6.408,0,0,0,3.068-.767,5.836,5.836,0,0,0,2.318-2.3,7.371,7.371,0,0,0,.884-3.735,7.485,7.485,0,0,0-.867-3.735,5.678,5.678,0,0,0-2.268-2.284,6.546,6.546,0,0,0-6.086,0,5.5,5.5,0,0,0-2.218,2.284,7.728,7.728,0,0,0-.834,3.735,7.936,7.936,0,0,0,.817,3.769,5.431,5.431,0,0,0,2.184,2.284A6.136,6.136,0,0,0,328.341,32.111ZM345.65,11.234l-.367,16.675h-2.535l-.367-16.675Zm-1.5,23.445a2.068,2.068,0,1,1,0-4.135,1.9,1.9,0,0,1,1.417.6,2.137,2.137,0,0,1,0,2.935A1.9,1.9,0,0,1,344.149,34.679Z" transform="translate(102.258 480.023)" fill="#0f0f0f"/>
    </g>
  </g>
</svg>
