<svg xmlns="http://www.w3.org/2000/svg" width="17.39" height="18.583" viewBox="0 0 17.39 18.583">
  <g id="Group_203206" data-name="Group 203206" transform="translate(-863.25 -799.25)">
    <path id="Path_19089" data-name="Path 19089" d="M9851.389,411.384h-2.629a1.3,1.3,0,0,0-.923.384,1.311,1.311,0,0,0-.391.93v3.285a1.308,1.308,0,0,0,.391.929,1.293,1.293,0,0,0,.923.385h1.314a1.311,1.311,0,0,0,1.314-1.314Zm0,0a7.92,7.92,0,0,0-.6-3.033,8.015,8.015,0,0,0-1.728-2.566,7.95,7.95,0,0,0-12.952,2.568,7.789,7.789,0,0,0-.608,3.031v4.6a1.3,1.3,0,0,0,.383.929,1.325,1.325,0,0,0,.932.385h1.313a1.325,1.325,0,0,0,.932-.385,1.309,1.309,0,0,0,.383-.929V412.7a1.312,1.312,0,0,0-.383-.93,1.328,1.328,0,0,0-.932-.384H9835.5" transform="translate(-8971.499 396.5)" fill="none" stroke="#212529" stroke-linecap="round" stroke-linejoin="round" stroke-width="1.5"/>
    <path id="Path_19090" data-name="Path 19090" d="M9854.224,420.125V422.1a2.623,2.623,0,0,1-2.629,2.628h-4.716" transform="translate(-8974.334 392.359)" fill="none" stroke="#212529" stroke-linecap="round" stroke-linejoin="round" stroke-width="1.5"/>
  </g>
</svg>
