<svg xmlns="http://www.w3.org/2000/svg" width="15.57" height="17.051" viewBox="0 0 15.57 17.051">
  <g id="Group_203217" data-name="Group 203217" transform="translate(-863.25 -737.25)">
    <path id="Path_253055" data-name="Path 253055" d="M10586.5,775.5h5.185" transform="translate(-9718.055 -21.948)" fill="none" stroke="#212529" stroke-linecap="round" stroke-linejoin="round" stroke-width="1.5"/>
    <path id="Path_253056" data-name="Path 253056" d="M10581.686,760.332a5.8,5.8,0,0,1,.445-2.239,5.34,5.34,0,0,1,1.332-1.9,5.807,5.807,0,0,1,1.852-1.263,6.038,6.038,0,0,1,2.295-.435,5.891,5.891,0,0,1,5.777,5.905v.575a11.181,11.181,0,0,0,1.111,5.508.759.759,0,0,1,0,.646,1.194,1.194,0,0,1-.225.238.869.869,0,0,1-.369.087h-12.736a.862.862,0,0,1-.369-.087,1.194,1.194,0,0,1-.225-.238.741.741,0,0,1,0-.646,11.181,11.181,0,0,0,1.111-5.508Z" transform="translate(-9716.5 -16.5)" fill="none" stroke="#212529" stroke-linecap="round" stroke-linejoin="round" stroke-width="1.5"/>
  </g>
</svg>
