<svg xmlns="http://www.w3.org/2000/svg" width="22.604" height="17.927" viewBox="0 0 22.604 17.927">
  <g id="Group_203272" data-name="Group 203272" transform="translate(-2381.456 -2684.506)">
    <path id="Path_17462" data-name="Path 17462" d="M9653.039,2525.58a3.415,3.415,0,1,0-3.419-3.419A3.418,3.418,0,0,0,9653.039,2525.58Z" transform="translate(-7260.281 170.622)" fill="none" stroke="#212529" stroke-linecap="round" stroke-linejoin="round" stroke-width="1.5"/>
    <path id="Path_17463" data-name="Path 17463" d="M9646.98,2530.864a6.141,6.141,0,0,1,10.959,0" transform="translate(-7259.702 168.702)" fill="none" stroke="#212529" stroke-linecap="round" stroke-linejoin="round" stroke-width="1.5"/>
    <path id="Path_17464" data-name="Path 17464" d="M9661.88,2524l2.045,2.045,2.046-2.045" transform="translate(-7262.971 169.47)" fill="none" stroke="#212529" stroke-linecap="round" stroke-linejoin="round" stroke-width="1.5"/>
    <path id="Path_17465" data-name="Path 17465" d="M9640.88,2523.425l2.045-2.045,2.046,2.045" transform="translate(-7258.363 170.045)" fill="none" stroke="#212529" stroke-linecap="round" stroke-linejoin="round" stroke-width="1.5"/>
    <path id="Path_17466" data-name="Path 17466" d="M9660.259,2523.748v-2.053a8.2,8.2,0,0,0-15.089-4.449" transform="translate(-7259.305 171.775)" fill="none" stroke="#212529" stroke-linecap="round" stroke-linejoin="round" stroke-width="1.5"/>
    <path id="Path_17467" data-name="Path 17467" d="M9643.5,2521.38v2.045a8.2,8.2,0,0,0,15.089,4.449" transform="translate(-7258.938 170.045)" fill="none" stroke="#212529" stroke-linecap="round" stroke-linejoin="round" stroke-width="1.5"/>
  </g>
</svg>
