<svg xmlns="http://www.w3.org/2000/svg" width="15.579" height="19.841" viewBox="0 0 15.579 19.841">
  <g id="Group_203216" data-name="Group 203216" transform="translate(-863.25 -681.249)">
    <path id="Path_253045" data-name="Path 253045" d="M10329.6,1288.38h7.093" transform="translate(-9462.131 -588.04)" fill="none" stroke="#212529" stroke-linecap="round" stroke-linejoin="round" stroke-width="1.5"/>
    <path id="Path_253046" data-name="Path 253046" d="M10334,1283.691v-4.941" transform="translate(-9462.982 -586.172)" fill="none" stroke="#212529" stroke-linecap="round" stroke-linejoin="round" stroke-width="1.5"/>
    <path id="Path_253047" data-name="Path 253047" d="M10330.5,1275.25l2.821,2.821,2.82-2.821" transform="translate(-9462.305 -585.493)" fill="none" stroke="#212529" stroke-linecap="round" stroke-linejoin="round" stroke-width="1.5"/>
    <path id="Path_253048" data-name="Path 253048" d="M10327.958,1278.236a7.675,7.675,0,0,1-2.015-2.451,7.91,7.91,0,0,1-.645-3.063,7,7,0,0,1,10.964-5.86,7.094,7.094,0,0,1,2.82,7.763,7.2,7.2,0,0,1-2.419,3.595,2.772,2.772,0,0,0-.645.75,3.57,3.57,0,0,0-.161.935v.532a.778.778,0,0,1-.726.709h-5.643a.644.644,0,0,1-.483-.21.653.653,0,0,1-.242-.5v-.532a3.511,3.511,0,0,0-.16-.927,2.611,2.611,0,0,0-.646-.741Z" transform="translate(-9461.297 -583.627)" fill="none" stroke="#212529" stroke-linecap="round" stroke-linejoin="round" stroke-width="1.5"/>
  </g>
</svg>
