<svg xmlns="http://www.w3.org/2000/svg" width="16.952" height="20.115" viewBox="0 0 16.952 20.115">
  <path id="Path_253054" data-name="Path 253054" d="M9783.14,2264.022v-1.032a1.721,1.721,0,1,0-3.442,0v-5.515a1.721,1.721,0,0,0-1.726-1.725,1.712,1.712,0,0,0-1.213.5,1.736,1.736,0,0,0-.512,1.221v10.446l-1.883-3.269a1.735,1.735,0,0,0-2.356-.638,1.7,1.7,0,0,0-.8,1.048,1.745,1.745,0,0,0,.165,1.315c2.812,5.916,4.522,7.988,8.327,7.988a6.882,6.882,0,0,0,2.639-.528,7,7,0,0,0,2.237-1.5,6.946,6.946,0,0,0,2.018-4.876v-3.443a1.723,1.723,0,0,0-1.726-1.725,1.711,1.711,0,0,0-1.214.5,1.739,1.739,0,0,0-.512,1.221Z" transform="translate(-9770.389 -2255)" fill="none" stroke="#212529" stroke-linecap="round" stroke-linejoin="round" stroke-width="1.5"/>
</svg>
